Coordinates
version=1
nRows=5
nColumns=40
inDegrees=yes

Units are S.I. units (second, meters, Newtons, ...)
Angles are in degrees.

endheader
time	pelvis_tilt	pelvis_list	pelvis_rotation	pelvis_tx	pelvis_ty	pelvis_tz	hip_flexion_r	hip_adduction_r	hip_rotation_r	knee_angle_r	knee_angle_r_beta	ankle_angle_r	subtalar_angle_r	mtp_angle_r	hip_flexion_l	hip_adduction_l	hip_rotation_l	knee_angle_l	knee_angle_l_beta	ankle_angle_l	subtalar_angle_l	mtp_angle_l	lumbar_extension	lumbar_bending	lumbar_rotation	arm_flex_r	arm_add_r	arm_rot_r	elbow_flex_r	pro_sup_r	wrist_flex_r	wrist_dev_r	arm_flex_l	arm_add_l	arm_rot_l	elbow_flex_l	pro_sup_l	wrist_flex_l	wrist_dev_l
     16.05014286	     -4.92311893	     -5.31650347	      3.16038663	      0.94764780	      0.92996149	      0.48200955	     10.87820876	      4.77646567	    -15.46505085	     14.10017766	     14.10017766	     10.44899266	     -0.62907340	     -3.36297392	     36.74787820	     -9.20443668	      2.09111160	     46.37179708	     46.37179708	      9.30141649	    -18.19293136	     14.73657197	    -11.28772772	      5.51711867	      2.91458408	     27.96939772	    -15.27118362	      3.18597808	     67.96439322	     44.84527649	      0.00000000	      0.00000000	      2.43471330	     -5.98506523	     -8.58056937	     31.97406603	     46.80469595	      0.00000000	      0.00000000
     16.06278571	     -4.95986816	     -5.42117943	      3.39764461	      0.94693127	      0.92999870	      0.48199621	     10.12427362	      4.93418507	    -15.98868024	     13.52306998	     13.52306998	     10.65454199	      0.14413060	     -3.41876688	     36.75485264	     -8.86186663	      2.14599495	     42.34188154	     42.34188154	      9.12128312	    -17.74707332	     13.84759752	    -11.38668055	      5.63857337	      2.40133881	     29.80654185	    -14.87809528	      3.40685393	     71.49573216	     44.73953239	      0.00000000	      0.00000000	      1.84382693	     -5.93315402	     -8.60183003	     29.32786783	     46.78687917	      0.00000000	      0.00000000
     16.07542857	     -5.11370147	     -5.42200628	      3.52597687	      0.94626197	      0.92978302	      0.48184903	      9.58080644	      4.94554545	    -16.38439908	     13.13781696	     13.13781696	     10.98172297	      0.91202155	     -3.49233996	     36.63930631	     -8.49597999	      1.97651220	     38.08354859	     38.08354859	      8.35927738	    -16.98616906	     11.14867833	    -11.31959102	      5.63332592	      3.31682381	     30.72886127	    -15.81930009	      3.18472694	     75.36792497	     44.66184833	      0.00000000	      0.00000000	      2.17200812	     -5.56323177	     -8.80224777	     26.28933595	     46.80343843	      0.00000000	      0.00000000
     16.08807143	     -5.37378903	     -5.50582436	      3.64151739	      0.94552625	      0.92926988	      0.48167890	      9.20619114	      5.08306042	    -16.44332940	     12.80437692	     12.80437692	     11.21919661	      1.00795623	     -3.54103860	     36.74650374	     -8.19090281	      1.93120181	     34.25442712	     34.25442712	      8.75178200	    -15.52216438	     11.34585980	    -11.09379253	      5.71549591	      3.42393494	     32.79161282	    -15.73205140	      2.85199985	     76.66957382	     44.64318976	      0.00000000	      0.00000000	      1.22060846	     -5.43909574	     -8.79744578	     25.74139842	     46.78250946	      0.00000000	      0.00000000
     16.10071429	     -5.47263271	     -5.54113702	      3.76415194	      0.94510868	      0.92902292	      0.48142665	      8.52995627	      5.19052392	    -16.60627908	     12.27886673	     12.27886673	     11.44340191	      1.41781210	     -3.57524306	     36.52209692	     -7.88697634	      1.77359427	     30.47307002	     30.47307002	      9.03626637	    -13.82250264	     11.47218488	    -11.04200750	      5.71836429	      3.20672522	     34.71569468	    -15.25950683	      2.68467943	     78.50295114	     44.60162911	      0.00000000	      0.00000000	      0.22575420	     -5.43181498	     -8.76821201	     25.01610748	     46.75865071	      0.00000000	      0.00000000
